<?xml version="1.0" encoding="utf-8"?>
<svg version="1.1" id="Layer_1" xmlns="http://www.w3.org/2000/svg" xmlns:xlink="http://www.w3.org/1999/xlink" x="0px" y="0px"
	 viewBox="0 0 128 128" style="enable-background:new 0 0 128 128;" xml:space="preserve">
<style type="text/css">
	.st0{fill:#C1C7D0;}
	.st1{fill:#FFFFFF;}
</style>
<g id="Layer_2">
	<rect class="st0" width="128" height="128"/>
	<rect x="158" y="109.5" class="st1" width="2.5" height="2.5"/>
</g>
<g>
	<circle class="st0" cx="64" cy="64" r="64"/>
	<g>
		<path class="st1" d="M103,102.1c-9.9,9.8-23.6,15.9-38.8,15.9c-15.4,0-29.2-6.2-39.2-16.2v-6.6C25,86.8,32,80,40.6,80h46.8
			C96,80,103,86.8,103,95.2V102.1z"/>
		<path class="st1" d="M64,24c-12.7,0-23,10.3-23,23c0,12.7,10.3,23,23,23s23-10.3,23-23C87,34.3,76.7,24,64,24"/>
	</g>
</g>
</svg>
